<?xml version="1.0" standalone="no"?><!DOCTYPE svg PUBLIC "-//W3C//DTD SVG 1.1//EN" "http://www.w3.org/Graphics/SVG/1.1/DTD/svg11.dtd"><svg t="1774268600463" class="icon" viewBox="0 0 1024 1024" version="1.1" xmlns="http://www.w3.org/2000/svg" p-id="8937" xmlns:xlink="http://www.w3.org/1999/xlink" width="64" height="64"><path d="M512 61.44C263.29088 61.44 61.44 263.29088 61.44 512s201.85088 450.56 450.56 450.56 450.56-201.85088 450.56-450.56S760.70912 61.44 512 61.44zM125.41952 512a385.30048 385.30048 0 0 1 86.05696-242.85184l543.37536 543.3856A385.30048 385.30048 0 0 1 512 898.58048c-213.11488 0-386.58048-173.4656-386.58048-386.58048zM807.1168 761.15968L262.84032 216.8832c67.14368-56.77056 154.09152-91.46368 249.15968-91.46368 213.11488 0 386.58048 173.4656 386.58048 386.58048 0 95.06816-34.23232 182.02624-91.46368 249.15968zM566.81472 280.94464H373.37088v24.33024l97.3824 99.14368v-34.69312h91.19744c44.27776 0 72.16128 28.39552 72.16128 69.84704 0 37.85728-23.4496 64.45056-61.5424 68.5056l72.16128 73.46176c55.3472-26.15296 86.77376-80.67072 86.77376-141.96736 0.4608-86.50752-61.52192-158.6176-164.67968-158.6176v-0.01024z m-193.44384 508.3136v0.02048V473.3952l122.17344 124.8256h-24.80128v191.04768h-97.3824z" fill="#D50000" p-id="8938"></path></svg>