<?xml version="1.0" standalone="no"?><!DOCTYPE svg PUBLIC "-//W3C//DTD SVG 1.1//EN" "http://www.w3.org/Graphics/SVG/1.1/DTD/svg11.dtd"><svg t="1774268650882" class="icon" viewBox="0 0 1024 1024" version="1.1" xmlns="http://www.w3.org/2000/svg" p-id="9958" xmlns:xlink="http://www.w3.org/1999/xlink" width="64" height="64"><path d="M511.998465 57.264215c-204.053396 0-369.471866 165.417447-369.471866 369.472889 0 47.588855 8.999978 93.073792 25.38618 134.852314 0 0 0.001023 0.004093 0.002047 0.004093 5.528923 14.097066 11.899004 27.773554 19.047822 40.962947 40.071647 79.612199 144.580886 256.800737 325.035818 364.178303 180.420139-107.355053 284.923238-284.496519 325.011258-364.130208 28.356838-52.29504 44.461631-112.200408 44.461631-175.86745C881.471354 222.682685 716.053907 57.264215 511.998465 57.264215zM512.000512 744.713132c-173.35421 0-313.88485-140.53064-313.88485-313.883827S338.646302 116.945479 512.000512 116.945479c173.352163 0 313.882803 140.529617 313.882803 313.882803S685.352675 744.713132 512.000512 744.713132z" fill="#333333" p-id="9959"></path><path d="M467.55423 500.81117c10.614755 2.106987 24.27487 2.814092 39.423895 2.814092 68.248384 0 126.639259-16.179494 166.063153-49.954739 31.106462-26.030863 47.02399-65.427128 47.02399-112.557542 0-46.432519-21.228487-85.829807-54.590316-109.045555-34.133402-26.031886-84.941578-38.697347-156.220994-38.697347-70.508867 0-120.561843 4.222161-156.203598 9.850345l0 467.841268 114.50387 0L467.55423 500.81117 467.55423 500.81117zM467.55423 278.498922c8.335852-2.114151 24.27487-3.52222 47.00557-3.52222 58.391898 0 91.00262 26.031886 91.00262 69.648266 0 47.839565-37.916565 76.688613-99.336426 76.688613-17.442254 0-28.809139-0.700965-38.670741-2.816139L467.555254 278.498922 467.55423 278.498922zM467.55423 278.498922" fill="#333333" p-id="9960"></path></svg>